<?xml version="1.0" standalone="no"?>
<!DOCTYPE svg PUBLIC "-//W3C//DTD SVG 20010904//EN"
 "http://www.w3.org/TR/2001/REC-SVG-20010904/DTD/svg10.dtd">
<svg version="1.0" xmlns="http://www.w3.org/2000/svg"
 width="142.000000pt" height="142.000000pt" viewBox="0 0 142.000000 142.000000"
 preserveAspectRatio="xMidYMid meet">
<metadata>
Created by potrace 1.11, written by Peter Selinger 2001-2013
</metadata>
<g transform="translate(0.000000,142.000000) scale(0.100000,-0.100000)"
fill="#000000" stroke="none">
<path d="M264 1056 c-53 -17 -127 -68 -158 -109 -118 -155 -106 -357 29 -493
71 -71 142 -97 250 -92 131 7 233 76 292 196 25 50 28 68 28 152 0 82 -4 103
-27 152 -34 72 -93 137 -160 173 -43 24 -67 29 -133 32 -48 2 -96 -3 -121 -11z
m194 -125 c20 -10 44 -27 53 -37 92 -105 82 -290 -19 -374 -35 -28 -106 -51
-140 -45 -9 2 -29 6 -44 10 -37 7 -94 59 -121 109 -31 58 -31 184 0 241 25 47
68 90 103 104 42 17 127 13 168 -8z"/>
<path d="M820 715 l0 -355 68 0 68 0 -1 101 -1 102 44 53 c25 30 46 54 47 54
2 0 53 -70 115 -155 l111 -155 76 0 75 0 -24 33 c-113 151 -257 354 -257 362
0 6 51 68 112 139 62 72 120 140 130 153 l18 23 -73 0 -73 0 -144 -165 c-80
-91 -147 -165 -150 -165 -4 0 -6 74 -6 165 l0 165 -67 0 -68 0 0 -355z"/>
</g>
</svg>
